<svg width="20" height="20" viewBox="0 0 20 20" fill="none" xmlns="http://www.w3.org/2000/svg">
<g id="cart4-fill">
<path id="Vector" d="M2.51305 1.6658C2.0528 1.66213 1.68347 2.03896 1.67972 2.49913C1.67597 2.95938 2.0528 3.3288 2.51305 3.33246C3.12771 3.33746 3.60155 3.75805 3.99738 4.53038C4.31405 5.14805 4.45396 5.86196 4.46613 5.93663L5.45571 11.51C5.75571 13.0108 7.19905 14.1658 8.71096 14.1658H15.8464C16.3066 14.1658 16.6797 13.7925 16.6797 13.3325C16.6797 12.8725 16.3066 12.4991 15.8464 12.4991H8.71096C7.99346 12.4991 7.23713 11.9008 7.09638 11.1975L7.0443 10.8325H15.013C16.2428 10.8325 17.3305 9.67496 17.513 8.46246L18.3203 4.32205C18.4235 3.80638 18.039 3.33255 17.513 3.33246H5.24738C4.61321 2.36396 3.6658 1.67513 2.51305 1.6658ZM7.92971 15.8325C7.23938 15.8325 6.67971 16.3925 6.67971 17.0825C6.67971 17.7725 7.23938 18.3325 7.92971 18.3325C8.62005 18.3325 9.17971 17.7725 9.17971 17.0825C9.17971 16.3925 8.62005 15.8325 7.92971 15.8325ZM14.5964 15.8325C13.906 15.8325 13.3464 16.3925 13.3464 17.0825C13.3464 17.7725 13.906 18.3325 14.5964 18.3325C15.2867 18.3325 15.8464 17.7725 15.8464 17.0825C15.8464 16.3925 15.2867 15.8325 14.5964 15.8325Z" fill="black"/>
</g>
</svg>
