<svg width="33" height="33" viewBox="0 0 33 33" fill="none" xmlns="http://www.w3.org/2000/svg">
<g id="ins_line 1" clip-path="url(#clip0_1_2340)">
<g id="Group">
<path id="Vector" fill-rule="evenodd" clip-rule="evenodd" d="M22.0013 4.63525C23.7694 4.63525 25.4651 5.33763 26.7153 6.58788C27.9656 7.83812 28.668 9.53381 28.668 11.3019V21.9686C28.668 23.7367 27.9656 25.4324 26.7153 26.6826C25.4651 27.9329 23.7694 28.6353 22.0013 28.6353H11.3346C9.56653 28.6353 7.87083 27.9329 6.62059 26.6826C5.37035 25.4324 4.66797 23.7367 4.66797 21.9686V11.3019C4.66797 9.53381 5.37035 7.83812 6.62059 6.58788C7.87083 5.33763 9.56653 4.63525 11.3346 4.63525H22.0013ZM22.0013 7.30192H11.3346C10.2738 7.30192 9.25635 7.72335 8.50621 8.47349C7.75606 9.22364 7.33464 10.2411 7.33464 11.3019V21.9686C7.33464 23.0295 7.75606 24.0469 8.50621 24.797C9.25635 25.5472 10.2738 25.9686 11.3346 25.9686H22.0013C23.0622 25.9686 24.0796 25.5472 24.8297 24.797C25.5799 24.0469 26.0013 23.0295 26.0013 21.9686V11.3019C26.0013 10.2411 25.5799 9.22364 24.8297 8.47349C24.0796 7.72335 23.0622 7.30192 22.0013 7.30192ZM16.668 11.3019C18.0825 11.3019 19.439 11.8638 20.4392 12.864C21.4394 13.8642 22.0013 15.2208 22.0013 16.6353C22.0013 18.0497 21.4394 19.4063 20.4392 20.4065C19.439 21.4067 18.0825 21.9686 16.668 21.9686C15.2535 21.9686 13.8969 21.4067 12.8967 20.4065C11.8965 19.4063 11.3346 18.0497 11.3346 16.6353C11.3346 15.2208 11.8965 13.8642 12.8967 12.864C13.8969 11.8638 15.2535 11.3019 16.668 11.3019ZM16.668 13.9686C15.9607 13.9686 15.2824 14.2495 14.7824 14.7496C14.2823 15.2497 14.0013 15.928 14.0013 16.6353C14.0013 17.3425 14.2823 18.0208 14.7824 18.5209C15.2824 19.021 15.9607 19.3019 16.668 19.3019C17.3752 19.3019 18.0535 19.021 18.5536 18.5209C19.0537 18.0208 19.3346 17.3425 19.3346 16.6353C19.3346 15.928 19.0537 15.2497 18.5536 14.7496C18.0535 14.2495 17.3752 13.9686 16.668 13.9686ZM22.668 9.30192C23.0216 9.30192 23.3607 9.4424 23.6108 9.69245C23.8608 9.94249 24.0013 10.2816 24.0013 10.6353C24.0013 10.9889 23.8608 11.328 23.6108 11.5781C23.3607 11.8281 23.0216 11.9686 22.668 11.9686C22.3143 11.9686 21.9752 11.8281 21.7252 11.5781C21.4751 11.328 21.3346 10.9889 21.3346 10.6353C21.3346 10.2816 21.4751 9.94249 21.7252 9.69245C21.9752 9.4424 22.3143 9.30192 22.668 9.30192Z" fill="#9CA3AF"/>
</g>
</g>
<defs>
<clipPath id="clip0_1_2340">
<rect width="32" height="32" fill="white" transform="translate(0.667969 0.635254)"/>
</clipPath>
</defs>
</svg>
