<svg width="534" height="114" viewBox="0 0 534 114" fill="none" xmlns="http://www.w3.org/2000/svg">
<g clip-path="url(#clip0_3009_1036)">
<path fill-rule="evenodd" clip-rule="evenodd" d="M0 113.72C10.9482 113.72 33.5 104.016 66.7485 83.5C110.5 56.5029 111.247 29.4726 133.497 31.6969C155.746 33.6432 177.996 67.5645 200.245 71.7351C222.495 75.9058 244.744 50.6039 266.994 50.6039C289.243 50.6039 311.493 75.9058 333.742 69.5108C355.992 63.1158 378.241 25.3019 400.491 27.5263C422.74 29.4726 444.99 71.7351 467.239 73.6814C489.489 75.9058 511.738 38.0919 523.04 19.185L533.988 0V113.72H523.04C511.738 113.72 489.489 113.72 467.239 113.72C444.99 113.72 422.74 113.72 400.491 113.72C378.241 113.72 355.992 113.72 333.742 113.72C311.493 113.72 289.243 113.72 266.994 113.72C244.744 113.72 222.495 113.72 200.245 113.72C177.996 113.72 155.746 113.72 133.497 113.72C111.247 113.72 88.998 113.72 66.7485 113.72C44.499 113.72 22.2495 113.72 11.3013 113.72H0Z" fill="black"/>
</g>
<defs>
<clipPath id="clip0_3009_1036">
<rect width="534" height="114" fill="white"/>
</clipPath>
</defs>
</svg>
