<svg width="38" height="38" viewBox="0 0 38 38" fill="none" xmlns="http://www.w3.org/2000/svg">
<g clip-path="url(#clip0_2829_12453)">
<path d="M6.33398 11.083H31.6673" stroke="#C3C3C3" stroke-width="2.75" stroke-linecap="round" stroke-linejoin="round"/>
<path d="M15.834 17.417V26.917" stroke="#C3C3C3" stroke-width="2.75" stroke-linecap="round" stroke-linejoin="round"/>
<path d="M22.166 17.417V26.917" stroke="#C3C3C3" stroke-width="2.75" stroke-linecap="round" stroke-linejoin="round"/>
<path d="M7.91602 11.083L9.49935 30.083C9.49935 30.9229 9.83298 31.7283 10.4268 32.3222C11.0207 32.916 11.8262 33.2497 12.666 33.2497H25.3327C26.1725 33.2497 26.978 32.916 27.5719 32.3222C28.1657 31.7283 28.4993 30.9229 28.4993 30.083L30.0827 11.083" stroke="#C3C3C3" stroke-width="2.75" stroke-linecap="round" stroke-linejoin="round"/>
<path d="M14.25 11.0833V6.33333C14.25 5.91341 14.4168 5.51068 14.7137 5.21375C15.0107 4.91681 15.4134 4.75 15.8333 4.75H22.1667C22.5866 4.75 22.9893 4.91681 23.2863 5.21375C23.5832 5.51068 23.75 5.91341 23.75 6.33333V11.0833" stroke="#C3C3C3" stroke-width="2.75" stroke-linecap="round" stroke-linejoin="round"/>
</g>
<defs>
<clipPath id="clip0_2829_12453">
<rect width="38" height="38" fill="white"/>
</clipPath>
</defs>
</svg>
