<svg width="17" height="17" viewBox="0 0 17 17" fill="none" xmlns="http://www.w3.org/2000/svg">
<path d="M2.125 5.66667V8.62183C2.12508 8.99753 2.27439 9.3578 2.54008 9.62342L6.58467 13.668C6.9048 13.9881 7.33896 14.1679 7.79167 14.1679C8.24437 14.1679 8.67854 13.9881 8.99867 13.668L11.543 11.1237C11.8631 10.8035 12.0429 10.3694 12.0429 9.91667C12.0429 9.46396 11.8631 9.0298 11.543 8.70967L7.49842 4.66508C7.2328 4.39939 6.87253 4.25008 6.49683 4.25H3.54167C3.16594 4.25 2.80561 4.39926 2.53993 4.66493C2.27426 4.93061 2.125 5.29094 2.125 5.66667Z" stroke="white" stroke-width="1.2" stroke-linecap="round" stroke-linejoin="round"/>
<path d="M12.75 13.4583L13.8777 12.3307C14.5178 11.6904 14.8775 10.8221 14.8775 9.91667C14.8775 9.01126 14.5178 8.14293 13.8777 7.50267L10.625 4.25" stroke="white" stroke-width="1.2" stroke-linecap="round" stroke-linejoin="round"/>
<path d="M4.95676 7.08398H4.95215" stroke="white" stroke-width="1.2" stroke-linecap="round" stroke-linejoin="round"/>
</svg>
